# xmcd
# 
# Track frame offsets:
#     150
#     10796
#     22753
#     39022
#     52563
#     69952
#     82278
#     95201
#     107941
#     125105
# 
# Disc length: 1837
# 
# Revision: 1
# Processed by: cddbd v1.5.2PL0 Copyright (c) Steve Scherf et al.
# Submitted via: BonkEnc v1.0
# 
DISCID=75072b0a
DTITLE=Marcelo Barra - Marcelo Barra - Jeito Goiano
DYEAR=1999
DGENRE=Nativa
TTITLE0=Empadão Goiano
TTITLE1=Meu Amigo Americano
TTITLE2=Cantiga
TTITLE3=Goianinha, Vem Cá
TTITLE4=Meio Zen
TTITLE5=Se Essa Rua Fosse Minha
TTITLE6=Ei Bicho
TTITLE7=Casinha Pequenina
TTITLE8=Vila Operária
TTITLE9=Jeito Goiano
EXTD=Marcelo Barra
EXTT0=
EXTT1=
EXTT2=
EXTT3=
EXTT4=
EXTT5=
EXTT6=
EXTT7=
EXTT8=
EXTT9=
PLAYORDER=
